<svg width="286" height="67" viewBox="0 0 286 67" fill="none" xmlns="http://www.w3.org/2000/svg">
<path d="M12.8086 31.418C13.4883 31.418 13.9805 31.6992 14.2852 32.2617C14.6133 32.8008 14.7773 33.4219 14.7773 34.125C14.7773 34.4766 14.7422 34.7812 14.6719 35.0391C14.6016 35.2969 14.4609 35.543 14.25 35.7773C14.0391 35.9883 13.7578 36.1992 13.4062 36.4102C13.0547 36.5977 12.5977 36.8086 12.0352 37.043C10.7227 37.6055 9.69141 38.2852 8.94141 39.082C8.19141 39.8555 7.81641 40.6289 7.81641 41.4023C7.81641 41.8945 7.98047 42.3633 8.30859 42.8086C8.63672 43.2539 9.15234 43.6523 9.85547 44.0039C10.5586 44.332 11.4609 44.6016 12.5625 44.8125C13.6875 45 15.0352 45.0938 16.6055 45.0938C18.2227 45.0938 19.7578 44.9062 21.2109 44.5312C22.6641 44.1328 23.9297 43.582 25.0078 42.8789C26.1094 42.1758 26.9766 41.3438 27.6094 40.3828C28.2656 39.4219 28.5938 38.3789 28.5938 37.2539C28.5938 36.4102 28.2422 35.5312 27.5391 34.6172C26.8359 33.7031 25.7227 32.7539 24.1992 31.7695C21.5039 30.0117 19.4531 28.5938 18.0469 27.5156C16.6641 26.4375 15.8086 25.7578 15.4805 25.4766C13.7227 23.9297 12.4102 22.4414 11.543 21.0117C10.6758 19.582 10.2422 18.0938 10.2422 16.5469C10.2422 15.1172 10.582 13.7227 11.2617 12.3633C11.9648 11.0039 12.9023 9.72656 14.0742 8.53125C15.2461 7.33594 16.5938 6.23438 18.1172 5.22656C19.6641 4.19531 21.2695 3.31641 22.9336 2.58984C24.6211 1.86328 26.3086 1.30078 27.9961 0.902344C29.707 0.480469 31.3242 0.269531 32.8477 0.269531C33.9961 0.269531 35.0508 0.398438 36.0117 0.65625C36.9961 0.914062 37.8516 1.32422 38.5781 1.88672C39.3047 2.42578 39.8672 3.12891 40.2656 3.99609C40.6875 4.86328 40.8984 5.90625 40.8984 7.125C40.8984 8.88281 40.3945 10.5586 39.3867 12.1523C38.3789 13.7461 36.8438 15.2344 34.7812 16.6172C33.8672 17.25 33.0234 17.5664 32.25 17.5664C31.4531 17.5664 30.8203 17.2852 30.3516 16.7227C29.8828 16.1367 29.6484 15.457 29.6484 14.6836C29.6484 14.0273 29.8359 13.3711 30.2109 12.7148C30.6094 12.0586 31.2422 11.4961 32.1094 11.0273C32.7891 10.6758 33.3867 10.207 33.9023 9.62109C34.4414 9.01172 34.7109 8.42578 34.7109 7.86328C34.7109 7.32422 34.5234 6.97266 34.1484 6.80859C33.7969 6.64453 33.3633 6.5625 32.8477 6.5625C31.8633 6.5625 30.7852 6.69141 29.6133 6.94922C28.4648 7.18359 27.3047 7.51172 26.1328 7.93359C24.9844 8.35547 23.8594 8.85937 22.7578 9.44531C21.6797 10.0312 20.7188 10.6641 19.875 11.3438C19.0547 12.0234 18.3867 12.75 17.8711 13.5234C17.3789 14.2734 17.1328 15.0234 17.1328 15.7734C17.1328 16.2891 17.2383 16.7695 17.4492 17.2148C17.6602 17.6602 17.9648 18.1055 18.3633 18.5508C18.7852 18.9961 19.2891 19.4648 19.875 19.957C20.4609 20.4258 21.1406 20.9414 21.9141 21.5039L30.1406 27.5859C31.1953 28.3594 32.1328 29.1211 32.9531 29.8711C33.7969 30.5977 34.5 31.3359 35.0625 32.0859C35.625 32.8125 36.0586 33.5508 36.3633 34.3008C36.668 35.0508 36.8203 35.8477 36.8203 36.6914C36.8203 38.5664 36.3281 40.4062 35.3438 42.2109C34.3828 43.9922 33 45.5859 31.1953 46.9922C29.4141 48.3984 27.2578 49.5352 24.7266 50.4023C22.2188 51.2695 19.4297 51.7031 16.3594 51.7031C13.5 51.7031 11.0625 51.4688 9.04688 51C7.05469 50.5547 5.41406 49.9453 4.125 49.1719C2.83594 48.375 1.89844 47.4727 1.3125 46.4648C0.726562 45.4336 0.433594 44.3555 0.433594 43.2305C0.433594 42.0586 0.726562 40.875 1.3125 39.6797C1.92188 38.4609 2.76562 37.3125 3.84375 36.2344C4.94531 35.1562 6.25781 34.1953 7.78125 33.3516C9.30469 32.5078 10.9805 31.8633 12.8086 31.418ZM54.2578 30.2578C54.1406 30.2344 54.0352 30.2227 53.9414 30.2227C53.8477 30.2227 53.7422 30.2227 53.625 30.2227C52.7344 30.2227 51.9023 30.3984 51.1289 30.75C50.3555 31.1016 49.6406 31.5703 48.9844 32.1562C48.3516 32.7188 47.7773 33.3633 47.2617 34.0898C46.7695 34.8164 46.3242 35.543 45.9258 36.2695C45.5273 36.9727 45.1875 37.6523 44.9062 38.3086C44.6484 38.9648 44.4492 39.5156 44.3086 39.9609C45.1289 39.5391 45.9727 39.0586 46.8398 38.5195C47.7305 37.9805 48.5625 37.4648 49.3359 36.9727C50.1094 36.4805 50.7773 36.0352 51.3398 35.6367C51.9258 35.2383 52.3359 34.9688 52.5703 34.8281C53.625 34.1719 54.3516 33.5625 54.75 33C55.1484 32.4141 55.3477 31.9102 55.3477 31.4883C55.3477 31.1367 55.2305 30.8555 54.9961 30.6445C54.7852 30.4336 54.5391 30.3047 54.2578 30.2578ZM55.5234 25.4062C57.4688 25.4062 58.9219 25.875 59.8828 26.8125C60.8438 27.75 61.3242 29.0508 61.3242 30.7148C61.3242 31.6992 61.0664 32.7305 60.5508 33.8086C60.0352 34.8867 59.1445 35.9883 57.8789 37.1133C56.6133 38.2148 54.9141 39.3516 52.7812 40.5234C50.6719 41.6719 48.0234 42.832 44.8359 44.0039C44.9531 44.6836 45.3164 45.2227 45.9258 45.6211C46.5352 45.9961 47.3438 46.1836 48.3516 46.1836C49.4297 46.1836 50.5781 46.0312 51.7969 45.7266C53.0391 45.3984 54.2578 44.9883 55.4531 44.4961C56.6719 44.0039 57.8555 43.4766 59.0039 42.9141C60.1523 42.3281 61.1836 41.7773 62.0977 41.2617C63.0352 40.7461 63.8086 40.3008 64.418 39.9258C65.0508 39.5508 65.4727 39.3164 65.6836 39.2227C65.8945 39.082 66.082 39 66.2461 38.9766C66.4336 38.9531 66.5977 38.9414 66.7383 38.9414C67.0195 38.9414 67.2539 39.0117 67.4414 39.1523C67.6289 39.2695 67.7812 39.4219 67.8984 39.6094C68.0391 39.7734 68.1328 39.9609 68.1797 40.1719C68.2266 40.3594 68.25 40.5234 68.25 40.6641C68.25 40.875 68.2266 41.1328 68.1797 41.4375C68.1328 41.7188 67.957 42.0469 67.6523 42.4219C67.5352 42.5391 67.1367 42.8555 66.457 43.3711C65.8008 43.8867 64.9453 44.4961 63.8906 45.1992C62.8359 45.9023 61.6055 46.6523 60.1992 47.4492C58.8164 48.2227 57.3398 48.9375 55.7695 49.5938C54.2227 50.25 52.6055 50.7891 50.918 51.2109C49.2305 51.6562 47.5664 51.8789 45.9258 51.8789C44.5195 51.8789 43.2656 51.6094 42.1641 51.0703C41.0859 50.5312 40.1602 49.8047 39.3867 48.8906C38.6367 47.9766 38.0625 46.9219 37.6641 45.7266C37.2656 44.5312 37.0664 43.2773 37.0664 41.9648C37.0664 40.957 37.2656 39.8555 37.6641 38.6602C38.0625 37.4414 38.6367 36.2227 39.3867 35.0039C40.1367 33.7852 41.0508 32.6016 42.1289 31.4531C43.2305 30.2812 44.4609 29.25 45.8203 28.3594C47.1797 27.4688 48.668 26.7539 50.2852 26.2148C51.9258 25.6758 53.6719 25.4062 55.5234 25.4062ZM70.1133 29.6602C70.582 28.6523 71.168 27.9023 71.8711 27.4102C72.5742 26.918 73.2656 26.6719 73.9453 26.6719C74.5078 26.6719 75.0117 26.8828 75.457 27.3047C75.9023 27.7031 76.125 28.3008 76.125 29.0977C76.125 29.4023 76.0898 29.7305 76.0195 30.082C75.9492 30.4336 75.8203 30.8086 75.6328 31.207C76.1484 30.5508 76.8867 29.8828 77.8477 29.2031C78.8086 28.5 79.8633 27.8789 81.0117 27.3398C82.1836 26.7773 83.3789 26.3203 84.5977 25.9688C85.8398 25.6172 87.0117 25.4414 88.1133 25.4414C89.3555 25.4414 90.3867 25.7461 91.207 26.3555C92.0508 26.9414 92.4727 27.9492 92.4727 29.3789C92.4727 30.2227 92.3438 31.1016 92.0859 32.0156C91.8281 32.9297 91.4883 33.8438 91.0664 34.7578C90.668 35.6719 90.2109 36.5742 89.6953 37.4648C89.2031 38.332 88.7109 39.1523 88.2188 39.9258C87.7266 40.6992 87.2695 41.4141 86.8477 42.0703C86.4492 42.7031 86.1328 43.2305 85.8984 43.6523C85.5938 44.0273 85.4414 44.4609 85.4414 44.9531C85.4414 45.1406 85.5 45.3047 85.6172 45.4453C85.7344 45.5859 85.9219 45.6562 86.1797 45.6562C86.3438 45.6562 86.5312 45.6445 86.7422 45.6211C86.9531 45.5742 87.2109 45.4453 87.5156 45.2344C88.7812 44.7656 90.0703 44.1797 91.3828 43.4766C92.7188 42.7734 93.9961 42.0352 95.2148 41.2617C96.4336 40.4648 97.5469 39.6797 98.5547 38.9062C99.5859 38.1094 100.441 37.3945 101.121 36.7617C101.309 36.5977 101.496 36.4805 101.684 36.4102C101.871 36.3398 102.047 36.3047 102.211 36.3047C102.609 36.3047 102.914 36.457 103.125 36.7617C103.359 37.0664 103.477 37.4531 103.477 37.9219C103.477 38.6484 103.242 39.457 102.773 40.3477C102.328 41.2383 101.613 42.0703 100.629 42.8438C99.293 43.8047 98.0625 44.6836 96.9375 45.4805C95.8359 46.2773 94.6992 47.0273 93.5273 47.7305C92.3789 48.4102 91.1367 49.0547 89.8008 49.6641C88.4883 50.25 86.9414 50.8008 85.1602 51.3164C84.5508 51.5039 83.9883 51.6445 83.4727 51.7383C82.9805 51.832 82.5234 51.8789 82.1016 51.8789C80.8594 51.8789 79.9453 51.5391 79.3594 50.8594C78.7969 50.1562 78.5156 49.1836 78.5156 47.9414C78.5156 47.7773 78.5156 47.625 78.5156 47.4844C78.5391 47.3203 78.5625 47.1445 78.5859 46.957C78.6328 46.2305 78.8203 45.4336 79.1484 44.5664C79.5 43.6992 79.9102 42.8086 80.3789 41.8945C80.8711 40.9805 81.3867 40.0781 81.9258 39.1875C82.4648 38.2734 82.957 37.418 83.4023 36.6211C83.8711 35.8008 84.2578 35.0742 84.5625 34.4414C84.8672 33.8086 85.0195 33.293 85.0195 32.8945C85.0195 32.543 84.9141 32.25 84.7031 32.0156C84.5156 31.7578 84.2227 31.6289 83.8242 31.6289C82.3242 31.6289 80.8945 32.0742 79.5352 32.9648C78.1992 33.8555 76.9453 34.957 75.7734 36.2695C74.6016 37.5586 73.5234 38.9297 72.5391 40.3828C71.5547 41.8359 70.6875 43.1367 69.9375 44.2852C69.4688 45.0586 69.0352 45.8906 68.6367 46.7812C68.2617 47.6484 67.8633 48.4688 67.4414 49.2422C67.0195 49.9922 66.5391 50.6133 66 51.1055C65.4844 51.6211 64.8281 51.8789 64.0312 51.8789C63.2109 51.8789 62.5664 51.6211 62.0977 51.1055C61.6289 50.5898 61.3945 49.957 61.3945 49.207C61.3945 48.8086 61.5586 48.1641 61.8867 47.2734C62.2148 46.3828 62.6367 45.3516 63.1523 44.1797C63.668 43.0078 64.2422 41.7539 64.875 40.418C65.5312 39.0586 66.1758 37.7227 66.8086 36.4102C67.4648 35.0742 68.0859 33.8203 68.6719 32.6484C69.2578 31.4766 69.7383 30.4805 70.1133 29.6602ZM108.047 31.207C109.477 31.957 110.754 32.8125 111.879 33.7734C113.004 34.7344 113.953 35.7539 114.727 36.832C115.523 37.8867 116.121 38.9648 116.52 40.0664C116.941 41.168 117.152 42.2461 117.152 43.3008C117.152 44.6367 116.766 45.8438 115.992 46.9219C115.242 47.9766 114.246 48.8789 113.004 49.6289C111.785 50.3555 110.379 50.9062 108.785 51.2812C107.215 51.6797 105.621 51.8789 104.004 51.8789C102.785 51.8789 101.602 51.7383 100.453 51.457C99.3047 51.1992 98.25 50.7891 97.2891 50.2266C96.3516 49.6641 95.543 48.9492 94.8633 48.082C94.1836 47.1914 93.7031 46.1367 93.4219 44.918C93.375 44.7305 93.3516 44.5781 93.3516 44.4609C93.3516 43.8281 93.5742 43.2891 94.0195 42.8438C94.4648 42.375 94.957 42.1406 95.4961 42.1406C95.7539 42.1406 96.0352 42.1875 96.3398 42.2812C96.668 42.375 96.9141 42.5859 97.0781 42.9141C97.3828 43.4766 97.8047 43.9805 98.3438 44.4258C98.9062 44.8711 99.5273 45.2578 100.207 45.5859C100.887 45.8906 101.602 46.1367 102.352 46.3242C103.125 46.4883 103.875 46.5703 104.602 46.5703C105.352 46.5703 106.066 46.5 106.746 46.3594C107.449 46.2188 108.059 45.9961 108.574 45.6914C109.113 45.3867 109.535 45 109.84 44.5312C110.145 44.0625 110.297 43.4883 110.297 42.8086C110.297 41.6133 110.027 40.5117 109.488 39.5039C108.949 38.4961 108.246 37.5703 107.379 36.7266C106.535 35.8594 105.562 35.0625 104.461 34.3359C103.383 33.5859 102.305 32.8711 101.227 32.1914C101.109 32.1211 100.934 31.9219 100.699 31.5938C100.465 31.2422 100.348 30.8906 100.348 30.5391C100.348 30.2578 100.418 30.0352 100.559 29.8711C100.934 29.3789 101.367 28.875 101.859 28.3594C102.352 27.8438 102.879 27.375 103.441 26.9531C104.004 26.5078 104.613 26.1562 105.27 25.8984C105.926 25.6172 106.605 25.4766 107.309 25.4766C107.824 25.4766 108.305 25.5469 108.75 25.6875C109.195 25.8281 109.57 26.0156 109.875 26.25C110.18 26.4609 110.414 26.707 110.578 26.9883C110.766 27.2461 110.859 27.4922 110.859 27.7266C110.859 28.0547 110.777 28.3711 110.613 28.6758C110.449 28.9805 110.227 29.2734 109.945 29.5547C109.688 29.8359 109.383 30.1172 109.031 30.3984C108.703 30.6797 108.375 30.9492 108.047 31.207ZM133.359 31.8047C132.258 31.8047 131.191 32.0859 130.16 32.6484C129.129 33.2109 128.215 33.9492 127.418 34.8633C126.621 35.7773 125.988 36.8086 125.52 37.957C125.051 39.082 124.816 40.2188 124.816 41.3672C124.816 41.8359 124.84 42.3281 124.887 42.8438C124.957 43.3359 125.098 43.793 125.309 44.2148C125.52 44.6367 125.812 44.9883 126.188 45.2695C126.586 45.5508 127.113 45.6914 127.77 45.6914C128.285 45.6914 128.883 45.4688 129.562 45.0234C130.266 44.5547 130.98 43.9688 131.707 43.2656C132.457 42.5391 133.184 41.7539 133.887 40.9102C134.59 40.043 135.223 39.1992 135.785 38.3789C136.348 37.5586 136.805 36.8203 137.156 36.1641C137.508 35.5078 137.684 35.0273 137.684 34.7227C137.684 34.2773 137.531 33.8789 137.227 33.5273C136.922 33.1523 136.547 32.8359 136.102 32.5781C135.656 32.3203 135.176 32.1328 134.66 32.0156C134.168 31.875 133.734 31.8047 133.359 31.8047ZM157.723 40.875C157.301 41.2734 156.738 41.8242 156.035 42.5273C155.332 43.2305 154.523 43.9922 153.609 44.8125C152.719 45.6328 151.758 46.4648 150.727 47.3086C149.719 48.1289 148.676 48.8789 147.598 49.5586C146.543 50.2383 145.5 50.7891 144.469 51.2109C143.438 51.6562 142.465 51.8789 141.551 51.8789C140.73 51.8789 140.027 51.7031 139.441 51.3516C138.855 51 138.363 50.543 137.965 49.9805C137.59 49.418 137.309 48.7852 137.121 48.082C136.934 47.3555 136.84 46.6172 136.84 45.8672C136.84 45.375 136.875 44.8945 136.945 44.4258C137.016 43.9336 137.133 43.4766 137.297 43.0547C136.57 44.0391 135.738 45.0586 134.801 46.1133C133.887 47.1445 132.891 48.0938 131.812 48.9609C130.758 49.8047 129.645 50.4961 128.473 51.0352C127.324 51.5977 126.152 51.8789 124.957 51.8789C124.348 51.8789 123.633 51.75 122.812 51.4922C122.016 51.2578 121.254 50.8594 120.527 50.2969C119.801 49.7344 119.191 49.0078 118.699 48.1172C118.207 47.2266 117.961 46.1367 117.961 44.8477C117.961 43.8867 118.102 42.7383 118.383 41.4023C118.688 40.0664 119.133 38.6836 119.719 37.2539C120.328 35.8008 121.09 34.3711 122.004 32.9648C122.941 31.5586 124.043 30.3047 125.309 29.2031C126.574 28.0781 128.016 27.1758 129.633 26.4961C131.25 25.793 133.055 25.4414 135.047 25.4414C136.078 25.4414 136.98 25.5703 137.754 25.8281C138.527 26.0859 139.184 26.3672 139.723 26.6719C140.332 27.0469 140.871 27.457 141.34 27.9023C141.738 27.6914 142.148 27.4922 142.57 27.3047C142.922 27.1406 143.285 27 143.66 26.8828C144.059 26.7422 144.398 26.6719 144.68 26.6719C145.57 26.6719 146.297 26.918 146.859 27.4102C147.422 27.9023 147.703 28.4414 147.703 29.0273C147.703 29.1914 147.691 29.3203 147.668 29.4141C147.551 29.8594 147.363 30.4219 147.105 31.1016C146.871 31.7812 146.602 32.543 146.297 33.3867C145.992 34.207 145.676 35.0742 145.348 35.9883C145.043 36.8789 144.762 37.7578 144.504 38.625C144.246 39.4922 144.035 40.3125 143.871 41.0859C143.707 41.8359 143.625 42.4805 143.625 43.0195C143.625 43.7227 143.742 44.3086 143.977 44.7773C144.211 45.2227 144.609 45.4453 145.172 45.4453C145.523 45.4453 145.934 45.3398 146.402 45.1289C146.895 44.8945 147.422 44.5898 147.984 44.2148C148.547 43.8398 149.121 43.418 149.707 42.9492C150.316 42.457 150.902 41.9648 151.465 41.4727C152.777 40.3008 154.172 38.9648 155.648 37.4648C156.023 37.1602 156.387 37.0078 156.738 37.0078C157.207 37.0078 157.594 37.2422 157.898 37.7109C158.227 38.1562 158.391 38.6602 158.391 39.2227C158.391 39.8789 158.168 40.4297 157.723 40.875ZM165.562 53.9531C165.562 53.7656 165.562 53.5781 165.562 53.3906C165.562 53.2266 165.551 53.0508 165.527 52.8633C163.887 53.707 162.422 54.5039 161.133 55.2539C159.867 56.0039 158.789 56.6953 157.898 57.3281C157.031 57.9609 156.363 58.5234 155.895 59.0156C155.449 59.5312 155.227 59.9414 155.227 60.2461C155.227 60.8555 155.449 61.3594 155.895 61.7578C156.363 62.1797 157.008 62.3906 157.828 62.3906C158.461 62.3906 159.211 62.1211 160.078 61.582C160.945 61.0664 161.777 60.3984 162.574 59.5781C163.371 58.7578 164.051 57.8438 164.613 56.8359C165.199 55.8516 165.516 54.8906 165.562 53.9531ZM186.867 34.2656C187.055 34.1016 187.242 34.0078 187.43 33.9844C187.641 33.9375 187.84 33.9023 188.027 33.8789C188.566 33.8789 189.047 34.0898 189.469 34.5117C189.891 34.9336 190.102 35.3906 190.102 35.8828C190.102 36.0938 190.055 36.2812 189.961 36.4453C189.891 36.6094 189.773 36.7852 189.609 36.9727C188.859 37.8164 187.957 38.6719 186.902 39.5391C185.871 40.4062 184.641 41.332 183.211 42.3164C181.805 43.3008 180.176 44.3672 178.324 45.5156C176.473 46.6641 174.352 47.9414 171.961 49.3477C171.961 49.4883 171.961 49.6406 171.961 49.8047C171.984 49.9453 171.996 50.0977 171.996 50.2617C171.996 51.457 171.762 52.6875 171.293 53.9531C170.848 55.2188 170.227 56.4609 169.43 57.6797C168.656 58.8984 167.742 60.0469 166.688 61.125C165.656 62.2266 164.555 63.1875 163.383 64.0078C162.234 64.8281 161.051 65.4727 159.832 65.9414C158.613 66.4336 157.441 66.6797 156.316 66.6797C155.191 66.6797 154.16 66.5391 153.223 66.2578C152.309 66 151.523 65.6133 150.867 65.0977C150.211 64.6055 149.707 64.0078 149.355 63.3047C149.004 62.625 148.828 61.8633 148.828 61.0195C148.828 60.2461 149.109 59.4141 149.672 58.5234C150.234 57.6328 151.125 56.6719 152.344 55.6406C153.562 54.6328 155.133 53.5312 157.055 52.3359C158.977 51.1641 161.285 49.8867 163.98 48.5039C163.582 48.3398 163.16 48.2461 162.715 48.2227C162.293 48.1992 161.883 48.1875 161.484 48.1875C160.945 48.1875 160.324 48.1992 159.621 48.2227C158.918 48.2461 158.203 48.2578 157.477 48.2578C156.914 48.2578 156.375 48.2461 155.859 48.2227C155.344 48.1992 154.875 48.1523 154.453 48.082C154.055 48.0117 153.738 47.9062 153.504 47.7656C153.27 47.6016 153.152 47.3906 153.152 47.1328C153.152 46.6406 153.281 46.1367 153.539 45.6211C153.797 45.082 154.266 44.4492 154.945 43.7227C155.648 42.9727 156.586 42.082 157.758 41.0508C158.953 39.9961 160.477 38.7188 162.328 37.2188L169.816 31.6992C169.652 31.6992 168.375 31.7344 165.984 31.8047C163.594 31.875 160.254 31.9102 155.965 31.9102C155.355 31.9102 154.91 31.7461 154.629 31.418C154.348 31.0898 154.207 30.7734 154.207 30.4688C154.23 30.1172 154.301 29.7305 154.418 29.3086C154.559 28.8867 154.746 28.5 154.98 28.1484C155.215 27.7734 155.496 27.457 155.824 27.1992C156.176 26.9414 156.574 26.8125 157.02 26.8125C157.488 26.8125 158.25 26.8125 159.305 26.8125C160.359 26.7891 161.555 26.7773 162.891 26.7773C164.227 26.7773 165.621 26.7656 167.074 26.7422C168.527 26.7188 169.887 26.707 171.152 26.707C172.418 26.707 173.508 26.707 174.422 26.707C175.336 26.6836 175.934 26.6719 176.215 26.6719C176.637 26.6719 176.977 26.7422 177.234 26.8828C177.492 27.0234 177.691 27.1992 177.832 27.4102C177.973 27.6211 178.066 27.8555 178.113 28.1133C178.16 28.3477 178.184 28.5703 178.184 28.7812C178.184 29.2031 178.09 29.625 177.902 30.0469C177.738 30.4688 177.457 30.9141 177.059 31.3828C176.684 31.8516 176.18 32.3555 175.547 32.8945C174.914 33.4102 174.152 33.9961 173.262 34.6523C173.098 34.7695 172.805 34.9805 172.383 35.2852C171.984 35.5898 171.504 35.9531 170.941 36.375C170.379 36.7734 169.758 37.2188 169.078 37.7109C168.422 38.2031 167.766 38.6953 167.109 39.1875C165.539 40.3359 163.816 41.6016 161.941 42.9844H162.68C164.18 42.9844 165.586 43.1953 166.898 43.6172C168.211 44.0391 169.312 44.6133 170.203 45.3398C172.195 44.2383 174.012 43.1953 175.652 42.2109C177.316 41.2266 178.816 40.2891 180.152 39.3984C181.512 38.4844 182.742 37.6055 183.844 36.7617C184.945 35.918 185.953 35.0859 186.867 34.2656ZM192.352 20.5898C192.352 20.0508 192.445 19.5 192.633 18.9375C192.844 18.3516 193.148 17.8242 193.547 17.3555C193.945 16.8867 194.438 16.5 195.023 16.1953C195.633 15.8906 196.348 15.7383 197.168 15.7383C198.527 15.7383 199.477 16.0078 200.016 16.5469C200.555 17.0625 200.824 17.7188 200.824 18.5156C200.824 18.9609 200.73 19.4531 200.543 19.9922C200.379 20.5312 200.121 21.0352 199.77 21.5039C199.418 21.9492 198.961 22.3242 198.398 22.6289C197.836 22.9336 197.168 23.0859 196.395 23.0859C194.941 23.0859 193.922 22.8633 193.336 22.418C192.75 21.9492 192.422 21.3398 192.352 20.5898ZM188.484 28.5C188.883 27.8438 189.34 27.375 189.855 27.0938C190.371 26.8125 190.898 26.6719 191.438 26.6719C192.328 26.6719 193.09 26.9648 193.723 27.5508C194.379 28.1133 194.707 28.8398 194.707 29.7305C194.684 29.9414 194.648 30.1523 194.602 30.3633C194.578 30.5742 194.508 30.7852 194.391 30.9961C194.062 31.6055 193.793 32.1211 193.582 32.543C193.371 32.9648 193.172 33.3633 192.984 33.7383C192.82 34.0898 192.656 34.4414 192.492 34.793C192.328 35.1445 192.129 35.5664 191.895 36.0586C191.613 36.6445 191.297 37.2891 190.945 37.9922C190.594 38.6719 190.254 39.375 189.926 40.1016C189.621 40.8281 189.352 41.543 189.117 42.2461C188.906 42.9492 188.801 43.5938 188.801 44.1797C188.801 44.8125 188.953 45.2344 189.258 45.4453C189.586 45.6328 190.043 45.7266 190.629 45.7266C191.285 45.7266 191.965 45.5859 192.668 45.3047C193.395 45.0234 194.121 44.6602 194.848 44.2148C195.574 43.7695 196.289 43.2656 196.992 42.7031C197.695 42.1172 198.352 41.5312 198.961 40.9453C199.594 40.3594 200.168 39.7969 200.684 39.2578C201.223 38.7188 201.668 38.2383 202.02 37.8164C202.488 37.3711 202.957 37.1484 203.426 37.1484C203.848 37.1484 204.188 37.3359 204.445 37.7109C204.727 38.0859 204.867 38.5664 204.867 39.1523C204.867 39.6914 204.727 40.2656 204.445 40.875C204.188 41.4844 203.754 42.0586 203.145 42.5977C201.949 43.8164 200.73 44.9883 199.488 46.1133C198.246 47.2148 196.969 48.1992 195.656 49.0664C194.367 49.9102 193.066 50.5898 191.754 51.1055C190.441 51.6211 189.117 51.8789 187.781 51.8789C185.883 51.8789 184.383 51.3984 183.281 50.4375C182.203 49.4531 181.664 47.9297 181.664 45.8672C181.664 44.7891 181.816 43.7344 182.121 42.7031C182.426 41.6719 182.789 40.6758 183.211 39.7148C183.633 38.7305 184.078 37.793 184.547 36.9023C185.016 35.9883 185.414 35.1211 185.742 34.3008C185.859 33.9961 186.059 33.5273 186.34 32.8945C186.645 32.2617 186.961 31.6172 187.289 30.9609C187.664 30.1875 188.062 29.3672 188.484 28.5ZM214.219 31.6289C213.117 31.6289 212.051 31.9102 211.02 32.4727C210.012 33.0117 209.109 33.7383 208.312 34.6523C207.539 35.543 206.918 36.5625 206.449 37.7109C205.98 38.8359 205.746 39.9961 205.746 41.1914C205.746 41.6367 205.781 42.1289 205.852 42.668C205.922 43.1836 206.062 43.6758 206.273 44.1445C206.508 44.5898 206.836 44.9648 207.258 45.2695C207.68 45.5742 208.242 45.7266 208.945 45.7266C210.023 45.7266 211.066 45.4453 212.074 44.8828C213.105 44.2969 214.02 43.5469 214.816 42.6328C215.613 41.6953 216.246 40.6406 216.715 39.4688C217.184 38.2969 217.418 37.1133 217.418 35.918C217.418 35.4492 217.383 34.9688 217.312 34.4766C217.266 33.9609 217.125 33.4922 216.891 33.0703C216.68 32.6484 216.363 32.3086 215.941 32.0508C215.52 31.7695 214.945 31.6289 214.219 31.6289ZM216.047 25.4414C216.938 25.4414 217.887 25.5586 218.895 25.793C219.926 26.0273 220.875 26.4258 221.742 26.9883C222.609 27.5508 223.324 28.3008 223.887 29.2383C224.473 30.1523 224.766 31.2891 224.766 32.6484C224.766 33.3516 224.672 34.1602 224.484 35.0742C224.297 35.9648 224.016 36.9023 223.641 37.8867C223.875 38.168 224.145 38.3672 224.449 38.4844C224.754 38.6016 225.082 38.6602 225.434 38.6602C225.926 38.6602 226.465 38.5195 227.051 38.2383C227.66 37.957 228.281 37.5938 228.914 37.1484C229.547 36.7031 230.18 36.1992 230.812 35.6367C231.445 35.0742 232.043 34.5117 232.605 33.9492C233.168 33.3867 233.672 32.8594 234.117 32.3672C234.586 31.8516 234.973 31.418 235.277 31.0664C235.441 30.9023 235.641 30.8203 235.875 30.8203C236.203 30.8203 236.496 30.9961 236.754 31.3477C237.012 31.6758 237.141 32.1445 237.141 32.7539C237.141 33.3633 236.953 34.0664 236.578 34.8633C236.227 35.6602 235.559 36.4922 234.574 37.3594C234.012 37.9688 233.367 38.6719 232.641 39.4688C231.914 40.2656 231.141 41.0156 230.32 41.7188C229.5 42.4219 228.645 43.0195 227.754 43.5117C226.863 44.0039 225.973 44.25 225.082 44.25C224.473 44.25 223.875 44.1562 223.289 43.9688C222.727 43.7812 222.152 43.4766 221.566 43.0547C220.723 44.3672 219.762 45.5625 218.684 46.6406C217.605 47.7188 216.398 48.6445 215.062 49.418C213.75 50.1914 212.32 50.7891 210.773 51.2109C209.25 51.6562 207.621 51.8789 205.887 51.8789C205.23 51.8789 204.469 51.75 203.602 51.4922C202.734 51.2344 201.902 50.8125 201.105 50.2266C200.332 49.6172 199.676 48.832 199.137 47.8711C198.598 46.9102 198.328 45.7383 198.328 44.3555C198.328 43.418 198.48 42.293 198.785 40.9805C199.09 39.668 199.547 38.3203 200.156 36.9375C200.789 35.5312 201.574 34.1484 202.512 32.7891C203.473 31.4062 204.609 30.1758 205.922 29.0977C207.234 27.9961 208.734 27.1172 210.422 26.4609C212.109 25.7812 213.984 25.4414 216.047 25.4414ZM236.191 29.6602C236.66 28.6523 237.246 27.9023 237.949 27.4102C238.652 26.918 239.344 26.6719 240.023 26.6719C240.586 26.6719 241.09 26.8828 241.535 27.3047C241.98 27.7031 242.203 28.3008 242.203 29.0977C242.203 29.4023 242.168 29.7305 242.098 30.082C242.027 30.4336 241.898 30.8086 241.711 31.207C242.227 30.5508 242.965 29.8828 243.926 29.2031C244.887 28.5 245.941 27.8789 247.09 27.3398C248.262 26.7773 249.457 26.3203 250.676 25.9688C251.918 25.6172 253.09 25.4414 254.191 25.4414C255.434 25.4414 256.465 25.7461 257.285 26.3555C258.129 26.9414 258.551 27.9492 258.551 29.3789C258.551 30.2227 258.422 31.1016 258.164 32.0156C257.906 32.9297 257.566 33.8438 257.145 34.7578C256.746 35.6719 256.289 36.5742 255.773 37.4648C255.281 38.332 254.789 39.1523 254.297 39.9258C253.805 40.6992 253.348 41.4141 252.926 42.0703C252.527 42.7031 252.211 43.2305 251.977 43.6523C251.672 44.0273 251.52 44.4609 251.52 44.9531C251.52 45.1406 251.578 45.3047 251.695 45.4453C251.812 45.5859 252 45.6562 252.258 45.6562C252.422 45.6562 252.609 45.6445 252.82 45.6211C253.031 45.5742 253.289 45.4453 253.594 45.2344C254.859 44.7656 256.148 44.1797 257.461 43.4766C258.797 42.7734 260.074 42.0352 261.293 41.2617C262.512 40.4648 263.625 39.6797 264.633 38.9062C265.664 38.1094 266.52 37.3945 267.199 36.7617C267.387 36.5977 267.574 36.4805 267.762 36.4102C267.949 36.3398 268.125 36.3047 268.289 36.3047C268.688 36.3047 268.992 36.457 269.203 36.7617C269.438 37.0664 269.555 37.4531 269.555 37.9219C269.555 38.6484 269.32 39.457 268.852 40.3477C268.406 41.2383 267.691 42.0703 266.707 42.8438C265.371 43.8047 264.141 44.6836 263.016 45.4805C261.914 46.2773 260.777 47.0273 259.605 47.7305C258.457 48.4102 257.215 49.0547 255.879 49.6641C254.566 50.25 253.02 50.8008 251.238 51.3164C250.629 51.5039 250.066 51.6445 249.551 51.7383C249.059 51.832 248.602 51.8789 248.18 51.8789C246.938 51.8789 246.023 51.5391 245.438 50.8594C244.875 50.1562 244.594 49.1836 244.594 47.9414C244.594 47.7773 244.594 47.625 244.594 47.4844C244.617 47.3203 244.641 47.1445 244.664 46.957C244.711 46.2305 244.898 45.4336 245.227 44.5664C245.578 43.6992 245.988 42.8086 246.457 41.8945C246.949 40.9805 247.465 40.0781 248.004 39.1875C248.543 38.2734 249.035 37.418 249.48 36.6211C249.949 35.8008 250.336 35.0742 250.641 34.4414C250.945 33.8086 251.098 33.293 251.098 32.8945C251.098 32.543 250.992 32.25 250.781 32.0156C250.594 31.7578 250.301 31.6289 249.902 31.6289C248.402 31.6289 246.973 32.0742 245.613 32.9648C244.277 33.8555 243.023 34.957 241.852 36.2695C240.68 37.5586 239.602 38.9297 238.617 40.3828C237.633 41.8359 236.766 43.1367 236.016 44.2852C235.547 45.0586 235.113 45.8906 234.715 46.7812C234.34 47.6484 233.941 48.4688 233.52 49.2422C233.098 49.9922 232.617 50.6133 232.078 51.1055C231.562 51.6211 230.906 51.8789 230.109 51.8789C229.289 51.8789 228.645 51.6211 228.176 51.1055C227.707 50.5898 227.473 49.957 227.473 49.207C227.473 48.8086 227.637 48.1641 227.965 47.2734C228.293 46.3828 228.715 45.3516 229.23 44.1797C229.746 43.0078 230.32 41.7539 230.953 40.418C231.609 39.0586 232.254 37.7227 232.887 36.4102C233.543 35.0742 234.164 33.8203 234.75 32.6484C235.336 31.4766 235.816 30.4805 236.191 29.6602ZM272.508 20.5898C272.508 20.0508 272.602 19.5 272.789 18.9375C273 18.3516 273.305 17.8242 273.703 17.3555C274.102 16.8867 274.594 16.5 275.18 16.1953C275.789 15.8906 276.504 15.7383 277.324 15.7383C278.684 15.7383 279.633 16.0078 280.172 16.5469C280.711 17.0625 280.98 17.7188 280.98 18.5156C280.98 18.9609 280.887 19.4531 280.699 19.9922C280.535 20.5312 280.277 21.0352 279.926 21.5039C279.574 21.9492 279.117 22.3242 278.555 22.6289C277.992 22.9336 277.324 23.0859 276.551 23.0859C275.098 23.0859 274.078 22.8633 273.492 22.418C272.906 21.9492 272.578 21.3398 272.508 20.5898ZM268.641 28.5C269.039 27.8438 269.496 27.375 270.012 27.0938C270.527 26.8125 271.055 26.6719 271.594 26.6719C272.484 26.6719 273.246 26.9648 273.879 27.5508C274.535 28.1133 274.863 28.8398 274.863 29.7305C274.84 29.9414 274.805 30.1523 274.758 30.3633C274.734 30.5742 274.664 30.7852 274.547 30.9961C274.219 31.6055 273.949 32.1211 273.738 32.543C273.527 32.9648 273.328 33.3633 273.141 33.7383C272.977 34.0898 272.812 34.4414 272.648 34.793C272.484 35.1445 272.285 35.5664 272.051 36.0586C271.77 36.6445 271.453 37.2891 271.102 37.9922C270.75 38.6719 270.41 39.375 270.082 40.1016C269.777 40.8281 269.508 41.543 269.273 42.2461C269.062 42.9492 268.957 43.5938 268.957 44.1797C268.957 44.8125 269.109 45.2344 269.414 45.4453C269.742 45.6328 270.199 45.7266 270.785 45.7266C271.441 45.7266 272.121 45.5859 272.824 45.3047C273.551 45.0234 274.277 44.6602 275.004 44.2148C275.73 43.7695 276.445 43.2656 277.148 42.7031C277.852 42.1172 278.508 41.5312 279.117 40.9453C279.75 40.3594 280.324 39.7969 280.84 39.2578C281.379 38.7188 281.824 38.2383 282.176 37.8164C282.645 37.3711 283.113 37.1484 283.582 37.1484C284.004 37.1484 284.344 37.3359 284.602 37.7109C284.883 38.0859 285.023 38.5664 285.023 39.1523C285.023 39.6914 284.883 40.2656 284.602 40.875C284.344 41.4844 283.91 42.0586 283.301 42.5977C282.105 43.8164 280.887 44.9883 279.645 46.1133C278.402 47.2148 277.125 48.1992 275.812 49.0664C274.523 49.9102 273.223 50.5898 271.91 51.1055C270.598 51.6211 269.273 51.8789 267.938 51.8789C266.039 51.8789 264.539 51.3984 263.438 50.4375C262.359 49.4531 261.82 47.9297 261.82 45.8672C261.82 44.7891 261.973 43.7344 262.277 42.7031C262.582 41.6719 262.945 40.6758 263.367 39.7148C263.789 38.7305 264.234 37.793 264.703 36.9023C265.172 35.9883 265.57 35.1211 265.898 34.3008C266.016 33.9961 266.215 33.5273 266.496 32.8945C266.801 32.2617 267.117 31.6172 267.445 30.9609C267.82 30.1875 268.219 29.3672 268.641 28.5Z" fill="#BF9A16"/>
</svg>
